<?xml version="1.0" encoding="UTF-8" standalone="no"?><!-- Generator: Gravit.io --><svg xmlns="http://www.w3.org/2000/svg" xmlns:xlink="http://www.w3.org/1999/xlink" style="isolation:isolate" viewBox="179 155 311 311" width="311pt" height="311pt"><defs><clipPath id="_clipPath_btrduVVvcgn9IHissEo9XLgGVoXJHyTE"><rect width="1200" height="1000"/></clipPath></defs><g clip-path="url(#_clipPath_btrduVVvcgn9IHissEo9XLgGVoXJHyTE)"><rect width="1200" height="1000" style="fill:rgb(75,213,54)" fill-opacity="0"/><g><path d=" M 907.985 628.849 C 910.746 628.849 913.114 628.002 915.087 626.304 C 917.058 624.608 918.047 621.51 918.047 617.012 C 918.047 613.067 917.058 610.306 915.087 608.726 C 913.114 607.148 910.746 606.358 907.985 606.358 L 875.432 606.358 L 875.432 628.849 L 907.985 628.849 Z  M 858.858 592.154 L 907.985 592.154 C 911.613 592.154 915.046 592.589 918.283 593.456 C 921.518 594.326 924.359 595.726 926.806 597.658 C 929.251 599.593 931.165 602.156 932.547 605.352 C 933.928 608.548 934.619 612.437 934.619 617.012 C 934.619 621.037 934.145 624.528 933.198 627.488 C 932.251 630.447 930.928 632.953 929.233 635.004 C 927.534 637.058 925.522 638.676 923.196 639.86 C 920.867 641.044 918.36 641.911 915.679 642.464 L 934.5 675.016 L 915.324 675.016 L 897.804 643.056 L 875.432 643.056 L 875.432 675.016 L 858.858 675.016 L 858.858 592.154 Z " fill="rgb(255,255,255)"/><path d=" M 797.451 672.827 C 793.148 671.368 789.381 669.021 786.145 665.784 C 782.909 662.549 780.364 658.288 778.51 653 C 776.655 647.712 775.729 641.24 775.729 633.584 C 775.729 625.931 776.655 619.46 778.51 614.171 C 780.364 608.886 782.909 604.625 786.145 601.387 C 789.381 598.153 793.148 595.806 797.451 594.344 C 801.751 592.885 806.347 592.154 811.241 592.154 L 842.019 592.154 L 842.019 606.359 L 813.609 606.359 C 811.005 606.359 808.557 606.696 806.27 607.365 C 803.979 608.037 801.908 609.141 800.055 610.68 C 798.2 612.218 796.622 614.272 795.32 616.835 C 794.018 619.4 793.13 622.617 792.657 626.482 L 842.019 626.482 L 842.019 640.689 L 792.657 640.689 C 793.13 644.554 794.018 647.771 795.32 650.336 C 796.622 652.902 798.2 654.953 800.055 656.492 C 801.908 658.031 803.979 659.137 806.27 659.806 C 808.557 660.478 811.005 660.812 813.609 660.812 L 842.019 660.812 L 842.019 675.017 L 811.241 675.017 C 806.347 675.017 801.751 674.289 797.451 672.827 Z " fill="rgb(255,255,255)"/><path d=" M 669.248 592.154 L 694.462 592.154 L 715.177 649.685 C 716.835 645.107 718.532 640.393 720.269 635.537 C 722.003 630.684 723.779 625.792 725.595 620.859 C 727.409 615.929 729.185 611.034 730.922 606.181 C 732.656 601.328 734.355 596.652 736.012 592.154 L 761.108 592.154 L 761.108 675.016 L 743.114 675.016 L 743.114 623.641 L 724.569 675.016 L 705.787 675.016 L 687.715 623.641 L 687.715 675.016 L 669.248 675.016 L 669.248 592.154 Z " fill="rgb(157,29,35)"/><path d=" M 633.381 642.82 C 631.25 637.768 629.219 632.992 627.285 628.495 C 625.351 623.995 623.28 619.143 621.07 613.935 L 608.878 642.82 L 633.381 642.82 Z  M 611.719 592.154 L 630.54 592.154 L 667.473 675.016 L 646.995 675.016 L 640.129 658.917 L 602.013 658.917 L 595.264 675.016 L 574.786 675.016 L 611.719 592.154 Z " fill="rgb(157,29,35)"/><path d=" M 528.147 672.827 C 523.806 671.368 520.018 669.001 516.782 665.725 C 513.546 662.452 510.982 658.19 509.088 652.941 C 507.194 647.694 506.247 641.24 506.247 633.584 C 506.247 625.931 507.194 619.46 509.088 614.171 C 510.982 608.886 513.546 604.625 516.782 601.387 C 520.018 598.153 523.806 595.806 528.147 594.344 C 532.486 592.885 537.102 592.154 541.996 592.154 L 573.011 592.154 L 573.011 608.253 L 544.246 608.253 C 541.955 608.253 539.765 608.531 537.676 609.082 C 535.584 609.635 533.69 610.582 531.994 611.922 C 530.296 613.266 528.857 615.041 527.673 617.249 C 526.49 619.46 525.661 622.221 525.188 625.535 L 573.011 625.535 L 573.011 641.636 L 525.188 641.636 C 525.661 644.951 526.49 647.712 527.673 649.922 C 528.857 652.133 530.296 653.908 531.994 655.249 C 533.69 656.592 535.584 657.539 537.676 658.09 C 539.765 658.643 541.955 658.918 544.246 658.918 L 573.011 658.918 L 573.011 675.017 L 541.996 675.017 C 537.102 675.017 532.486 674.289 528.147 672.827 Z " fill="rgb(157,29,35)"/><path d=" M 458.424 608.253 L 429.658 608.253 L 429.658 592.154 L 505.655 592.154 L 505.655 608.253 L 476.89 608.253 L 476.89 675.016 L 458.424 675.016 L 458.424 608.253 Z " fill="rgb(157,29,35)"/><path d=" M 374.377 672.827 C 370.074 671.368 366.307 669.021 363.071 665.784 C 359.835 662.549 357.29 658.288 355.436 653 C 353.581 647.712 352.655 641.24 352.655 633.584 C 352.655 625.931 353.581 619.46 355.436 614.171 C 357.29 608.886 359.835 604.625 363.071 601.387 C 366.307 598.153 370.074 595.806 374.377 594.344 C 378.677 592.885 383.273 592.154 388.167 592.154 L 418.945 592.154 L 418.945 606.359 L 390.535 606.359 C 387.931 606.359 385.483 606.696 383.196 607.365 C 380.905 608.037 378.834 609.141 376.981 610.68 C 375.126 612.218 373.548 614.272 372.246 616.835 C 370.944 619.4 370.056 622.617 369.583 626.482 L 418.945 626.482 L 418.945 640.689 L 369.583 640.689 C 370.056 644.554 370.944 647.771 372.246 650.336 C 373.548 652.902 375.126 654.953 376.981 656.492 C 378.834 658.031 380.905 659.137 383.196 659.806 C 385.483 660.478 387.931 660.812 390.535 660.812 L 418.945 660.812 L 418.945 675.017 L 388.167 675.017 C 383.273 675.017 378.677 674.289 374.377 672.827 Z " fill="rgb(255,255,255)"/><path d=" M 314.508 628.849 C 317.269 628.849 319.637 628.002 321.61 626.304 C 323.581 624.608 324.57 621.51 324.57 617.012 C 324.57 613.067 323.581 610.306 321.61 608.726 C 319.637 607.148 317.269 606.358 314.508 606.358 L 281.955 606.358 L 281.955 628.849 L 314.508 628.849 Z  M 265.381 592.154 L 314.508 592.154 C 318.136 592.154 321.569 592.589 324.806 593.456 C 328.041 594.326 330.882 595.726 333.329 597.658 C 335.774 599.593 337.688 602.156 339.07 605.352 C 340.451 608.548 341.142 612.437 341.142 617.012 C 341.142 621.037 340.668 624.528 339.721 627.488 C 338.774 630.447 337.451 632.953 335.756 635.004 C 334.057 637.058 332.045 638.676 329.719 639.86 C 327.39 641.044 324.884 641.911 322.202 642.464 L 341.023 675.016 L 321.847 675.016 L 304.327 643.056 L 281.955 643.056 L 281.955 675.016 L 265.381 675.016 L 265.381 592.154 Z " fill="rgb(255,255,255)"/></g><g><path d=" M 233 633.586 L 191.569 633.586 L 191.569 592.155 L 233 592.155 L 233 633.586 Z " fill="rgb(242,107,108)"/><path d=" M 166.132 592.155 C 157.299 592.155 150.139 599.316 150.139 608.149 L 150.139 633.586 L 191.569 633.586 L 191.569 592.155 L 166.132 592.155 Z " fill="rgb(157,29,35)"/><path d=" M 191.569 675.017 L 150.139 675.017 L 150.139 633.586 L 191.569 633.586 L 191.569 675.017 Z " fill="rgb(245,147,140)"/></g><g><path d=" M 437 310 L 335 310 L 335 208 L 437 208 L 437 310 Z " fill="rgb(242,107,108)"/><path d=" M 272.375 208.001 C 250.628 208.001 233 225.63 233 247.375 L 233 310.001 L 335 310.001 L 335 208.001 L 272.375 208.001 Z " fill="rgb(157,29,35)"/><path d=" M 335 412 L 233 412 L 233 310 L 335 310 L 335 412 Z " fill="rgb(245,147,140)"/></g></g></svg>