<?xml version="1.0" encoding="UTF-8" standalone="no"?><!-- Generator: Gravit.io --><svg xmlns="http://www.w3.org/2000/svg" xmlns:xlink="http://www.w3.org/1999/xlink" style="isolation:isolate" viewBox="67 618 928 101" width="928pt" height="101pt"><defs><clipPath id="_clipPath_804D7DTRnP7rZx9tobTleWkWfGJNngK3"><rect width="1200" height="1000"/></clipPath></defs><g clip-path="url(#_clipPath_804D7DTRnP7rZx9tobTleWkWfGJNngK3)"><clipPath id="_clipPath_NCWD2uq8zXdsBK5jXFVTLGrRmbHVGyvF"><path d=" M 0 0 L 1200 0 L 1200 1000 L 0 1000 L 0 0 Z " fill="rgb(255,255,255)"/></clipPath><g clip-path="url(#_clipPath_NCWD2uq8zXdsBK5jXFVTLGrRmbHVGyvF)"><g><path d=" M 262.953 661.562 C 266.213 661.562 269.008 660.563 271.338 658.557 C 273.665 656.555 274.832 652.898 274.832 647.587 C 274.832 642.93 273.665 639.67 271.338 637.805 C 269.008 635.943 266.213 635.01 262.953 635.01 L 224.521 635.01 L 224.521 661.562 L 262.953 661.562 Z  M 204.955 618.24 L 262.953 618.24 C 267.237 618.24 271.289 618.754 275.111 619.778 C 278.93 620.804 282.284 622.457 285.173 624.739 C 288.059 627.023 290.319 630.049 291.95 633.822 C 293.58 637.595 294.396 642.186 294.396 647.587 C 294.396 652.339 293.837 656.461 292.719 659.955 C 291.601 663.449 290.04 666.408 288.038 668.829 C 286.033 671.253 283.657 673.164 280.91 674.562 C 278.161 675.959 275.202 676.983 272.037 677.636 L 294.256 716.066 L 271.617 716.066 L 250.933 678.335 L 224.521 678.335 L 224.521 716.066 L 204.955 716.066 L 204.955 618.24 Z " fill="rgb(0,0,0)"/><path d=" M 333.633 713.481 C 328.554 711.758 324.106 708.988 320.286 705.166 C 316.465 701.347 313.461 696.316 311.272 690.073 C 309.082 683.83 307.988 676.19 307.988 667.152 C 307.988 658.117 309.082 650.476 311.272 644.233 C 313.461 637.993 316.465 632.962 320.286 629.141 C 324.106 625.322 328.554 622.551 333.633 620.826 C 338.709 619.103 344.135 618.24 349.914 618.24 L 386.249 618.24 L 386.249 635.01 L 352.708 635.01 C 349.634 635.01 346.745 635.408 344.044 636.198 C 341.34 636.991 338.895 638.294 336.707 640.111 C 334.517 641.928 332.655 644.352 331.118 647.378 C 329.58 650.407 328.532 654.204 327.973 658.767 L 386.249 658.767 L 386.249 675.54 L 327.973 675.54 C 328.532 680.103 329.58 683.9 331.118 686.929 C 332.655 689.958 334.517 692.379 336.707 694.196 C 338.895 696.013 341.34 697.319 344.044 698.109 C 346.745 698.902 349.634 699.297 352.708 699.297 L 386.249 699.297 L 386.249 716.066 L 349.914 716.066 C 344.135 716.066 338.709 715.207 333.633 713.481 Z " fill="rgb(0,0,0)"/><path d=" M 432.858 637.246 L 398.898 637.246 L 398.898 618.24 L 488.619 618.24 L 488.619 637.246 L 454.659 637.246 L 454.659 716.066 L 432.858 716.066 L 432.858 637.246 Z " fill="rgb(7,84,163)"/><path d=" M 515.172 713.481 C 510.047 711.758 505.575 708.964 501.755 705.096 C 497.935 701.232 494.907 696.201 492.671 690.004 C 490.435 683.809 489.317 676.19 489.317 667.152 C 489.317 658.117 490.435 650.476 492.671 644.233 C 494.907 637.993 497.935 632.962 501.755 629.141 C 505.575 625.322 510.047 622.551 515.172 620.826 C 520.294 619.103 525.744 618.24 531.522 618.24 L 568.138 618.24 L 568.138 637.246 L 534.178 637.246 C 531.474 637.246 528.888 637.574 526.422 638.224 C 523.952 638.877 521.716 639.995 519.714 641.578 C 517.709 643.164 516.011 645.26 514.613 647.867 C 513.216 650.476 512.237 653.736 511.678 657.649 L 568.138 657.649 L 568.138 676.658 L 511.678 676.658 C 512.237 680.571 513.216 683.83 514.613 686.44 C 516.011 689.05 517.709 691.146 519.714 692.729 C 521.716 694.314 523.952 695.432 526.422 696.083 C 528.888 696.736 531.474 697.061 534.178 697.061 L 568.138 697.061 L 568.138 716.066 L 531.522 716.066 C 525.744 716.066 520.294 715.207 515.172 713.481 Z " fill="rgb(7,84,163)"/><path d=" M 639.409 678.055 C 636.894 672.091 634.495 666.453 632.212 661.143 C 629.929 655.832 627.483 650.103 624.875 643.954 L 610.481 678.055 L 639.409 678.055 Z  M 613.835 618.24 L 636.055 618.24 L 679.658 716.066 L 655.481 716.066 L 647.376 697.061 L 602.376 697.061 L 594.409 716.066 L 570.233 716.066 L 613.835 618.24 Z " fill="rgb(7,84,163)"/><path d=" M 681.753 618.24 L 711.521 618.24 L 735.977 686.16 C 737.933 680.756 739.937 675.19 741.987 669.457 C 744.036 663.728 746.131 657.952 748.276 652.129 C 750.417 646.308 752.515 640.53 754.565 634.8 C 756.612 629.07 758.617 623.55 760.573 618.24 L 790.201 618.24 L 790.201 716.066 L 768.958 716.066 L 768.958 655.413 L 747.063 716.066 L 724.891 716.066 L 703.555 655.413 L 703.555 716.066 L 681.753 716.066 L 681.753 618.24 Z " fill="rgb(7,84,163)"/><path d=" M 833.107 713.481 C 828.027 711.758 823.58 708.988 819.76 705.166 C 815.939 701.347 812.935 696.316 810.746 690.073 C 808.556 683.83 807.462 676.19 807.462 667.152 C 807.462 658.117 808.556 650.476 810.746 644.233 C 812.935 637.993 815.939 632.962 819.76 629.141 C 823.58 625.322 828.027 622.551 833.107 620.826 C 838.183 619.103 843.609 618.24 849.388 618.24 L 885.723 618.24 L 885.723 635.01 L 852.182 635.01 C 849.108 635.01 846.219 635.408 843.518 636.198 C 840.814 636.991 838.369 638.294 836.181 640.111 C 833.991 641.928 832.129 644.352 830.592 647.378 C 829.054 650.407 828.006 654.204 827.447 658.767 L 885.723 658.767 L 885.723 675.54 L 827.447 675.54 C 828.006 680.103 829.054 683.9 830.592 686.929 C 832.129 689.958 833.991 692.379 836.181 694.196 C 838.369 696.013 840.814 697.319 843.518 698.109 C 846.219 698.902 849.108 699.297 852.182 699.297 L 885.723 699.297 L 885.723 716.066 L 849.388 716.066 C 843.609 716.066 838.183 715.207 833.107 713.481 Z " fill="rgb(0,0,0)"/><path d=" M 963.602 663.562 C 966.862 663.562 969.657 662.563 971.987 660.557 C 974.314 658.555 975.48 654.898 975.48 649.587 C 975.48 644.93 974.314 641.67 971.987 639.805 C 969.657 637.943 966.862 637.01 963.602 637.01 L 925.17 637.01 L 925.17 663.562 L 963.602 663.562 Z  M 905.604 620.24 L 963.602 620.24 C 967.886 620.24 971.938 620.754 975.76 621.778 C 979.579 622.804 982.933 624.457 985.822 626.739 C 988.708 629.023 990.968 632.049 992.599 635.822 C 994.229 639.595 995.045 644.186 995.045 649.587 C 995.045 654.339 994.486 658.461 993.368 661.955 C 992.25 665.449 990.689 668.408 988.687 670.829 C 986.682 673.253 984.306 675.164 981.559 676.562 C 978.81 677.959 975.851 678.983 972.686 679.636 L 994.905 718.066 L 972.266 718.066 L 951.582 680.335 L 925.17 680.335 L 925.17 718.066 L 905.604 718.066 L 905.604 620.24 Z " fill="rgb(0,0,0)"/></g><g><path d=" M 729.231 413.165 L 600 413.165 L 600 283.934 L 729.231 283.934 L 729.231 413.165 Z " fill="rgb(97,185,232)"/><path d=" M 520.656 283.934 C 493.104 283.934 470.769 306.269 470.769 333.821 L 470.769 413.165 L 600 413.165 L 600 283.934 L 520.656 283.934 Z " fill="rgb(7,84,163)"/><path d=" M 600 542.396 L 470.769 542.396 L 470.769 413.165 L 600 413.165 L 600 542.396 Z " fill="rgb(128,212,247)"/></g><g><path d=" M 166.826 668.153 L 116.913 668.153 L 116.913 618.24 L 166.826 618.24 L 166.826 668.153 Z " fill="rgb(97,185,232)"/><path d=" M 86.268 618.24 C 75.626 618.24 67 626.866 67 637.508 L 67 668.153 L 116.913 668.153 L 116.913 618.24 L 86.268 618.24 Z " fill="rgb(7,84,163)"/><path d=" M 116.913 718.066 L 67 718.066 L 67 668.153 L 116.913 668.153 L 116.913 718.066 Z " fill="rgb(128,212,247)"/></g></g></g></svg>